<mxfile host="app.diagrams.net" modified="2022-10-31T08:43:00.859Z" agent="5.0 (Macintosh; Intel Mac OS X 10_15_7) AppleWebKit/605.1.15 (KHTML, like Gecko) Version/16.0 Safari/605.1.15" etag="fBm8YjNjXcz03ZzB5S3H" version="20.5.1" type="github">
  <diagram id="nbAJbluUPu1owXHJ7Z7m" name="Side-1">
    <mxGraphModel dx="1187" dy="698" grid="1" gridSize="10" guides="1" tooltips="1" connect="1" arrows="1" fold="1" page="1" pageScale="1" pageWidth="827" pageHeight="1169" math="0" shadow="0">
      <root>
        <mxCell id="0" />
        <mxCell id="1" parent="0" />
        <mxCell id="ssi6dEax1LiMGRlftHXH-6" style="edgeStyle=orthogonalEdgeStyle;rounded=0;orthogonalLoop=1;jettySize=auto;html=1;exitX=0.5;exitY=1;exitDx=0;exitDy=0;entryX=0.5;entryY=0;entryDx=0;entryDy=0;" edge="1" parent="1" source="ssi6dEax1LiMGRlftHXH-1" target="ssi6dEax1LiMGRlftHXH-5">
          <mxGeometry relative="1" as="geometry" />
        </mxCell>
        <mxCell id="ssi6dEax1LiMGRlftHXH-1" value="updateOLED()" style="ellipse;whiteSpace=wrap;html=1;" vertex="1" parent="1">
          <mxGeometry x="40" y="40" width="120" height="80" as="geometry" />
        </mxCell>
        <mxCell id="ssi6dEax1LiMGRlftHXH-7" style="edgeStyle=orthogonalEdgeStyle;rounded=0;orthogonalLoop=1;jettySize=auto;html=1;exitX=0;exitY=1;exitDx=0;exitDy=0;entryX=0.75;entryY=0;entryDx=0;entryDy=0;" edge="1" parent="1" source="ssi6dEax1LiMGRlftHXH-2" target="ssi6dEax1LiMGRlftHXH-5">
          <mxGeometry relative="1" as="geometry">
            <Array as="points">
              <mxPoint x="258" y="160" />
              <mxPoint x="130" y="160" />
            </Array>
          </mxGeometry>
        </mxCell>
        <mxCell id="ssi6dEax1LiMGRlftHXH-11" style="edgeStyle=orthogonalEdgeStyle;rounded=0;orthogonalLoop=1;jettySize=auto;html=1;exitX=1;exitY=1;exitDx=0;exitDy=0;entryX=1;entryY=0.5;entryDx=0;entryDy=0;" edge="1" parent="1" source="ssi6dEax1LiMGRlftHXH-2" target="ssi6dEax1LiMGRlftHXH-8">
          <mxGeometry relative="1" as="geometry" />
        </mxCell>
        <mxCell id="ssi6dEax1LiMGRlftHXH-12" style="edgeStyle=orthogonalEdgeStyle;rounded=0;orthogonalLoop=1;jettySize=auto;html=1;exitX=1;exitY=1;exitDx=0;exitDy=0;entryX=1;entryY=0.5;entryDx=0;entryDy=0;" edge="1" parent="1" source="ssi6dEax1LiMGRlftHXH-2" target="ssi6dEax1LiMGRlftHXH-9">
          <mxGeometry relative="1" as="geometry" />
        </mxCell>
        <mxCell id="ssi6dEax1LiMGRlftHXH-13" style="edgeStyle=orthogonalEdgeStyle;rounded=0;orthogonalLoop=1;jettySize=auto;html=1;exitX=1;exitY=1;exitDx=0;exitDy=0;entryX=1;entryY=0.5;entryDx=0;entryDy=0;" edge="1" parent="1" source="ssi6dEax1LiMGRlftHXH-2" target="ssi6dEax1LiMGRlftHXH-10">
          <mxGeometry relative="1" as="geometry" />
        </mxCell>
        <mxCell id="ssi6dEax1LiMGRlftHXH-29" style="edgeStyle=orthogonalEdgeStyle;rounded=0;orthogonalLoop=1;jettySize=auto;html=1;exitX=1;exitY=1;exitDx=0;exitDy=0;entryX=1;entryY=0.5;entryDx=0;entryDy=0;" edge="1" parent="1" source="ssi6dEax1LiMGRlftHXH-2" target="ssi6dEax1LiMGRlftHXH-28">
          <mxGeometry relative="1" as="geometry" />
        </mxCell>
        <mxCell id="ssi6dEax1LiMGRlftHXH-2" value="mqttSub()" style="ellipse;whiteSpace=wrap;html=1;" vertex="1" parent="1">
          <mxGeometry x="240" y="40" width="120" height="80" as="geometry" />
        </mxCell>
        <mxCell id="ssi6dEax1LiMGRlftHXH-17" style="edgeStyle=orthogonalEdgeStyle;rounded=0;orthogonalLoop=1;jettySize=auto;html=1;exitX=0.5;exitY=1;exitDx=0;exitDy=0;entryX=0.5;entryY=0;entryDx=0;entryDy=0;" edge="1" parent="1" source="ssi6dEax1LiMGRlftHXH-3" target="ssi6dEax1LiMGRlftHXH-14">
          <mxGeometry relative="1" as="geometry" />
        </mxCell>
        <mxCell id="ssi6dEax1LiMGRlftHXH-20" style="edgeStyle=orthogonalEdgeStyle;rounded=0;orthogonalLoop=1;jettySize=auto;html=1;exitX=0;exitY=1;exitDx=0;exitDy=0;entryX=0.5;entryY=0;entryDx=0;entryDy=0;" edge="1" parent="1" source="ssi6dEax1LiMGRlftHXH-3" target="ssi6dEax1LiMGRlftHXH-15">
          <mxGeometry relative="1" as="geometry" />
        </mxCell>
        <mxCell id="ssi6dEax1LiMGRlftHXH-3" value="entryCheck()" style="ellipse;whiteSpace=wrap;html=1;" vertex="1" parent="1">
          <mxGeometry x="440" y="40" width="120" height="80" as="geometry" />
        </mxCell>
        <mxCell id="ssi6dEax1LiMGRlftHXH-19" style="edgeStyle=orthogonalEdgeStyle;rounded=0;orthogonalLoop=1;jettySize=auto;html=1;exitX=0.5;exitY=1;exitDx=0;exitDy=0;entryX=0.5;entryY=0;entryDx=0;entryDy=0;" edge="1" parent="1" source="ssi6dEax1LiMGRlftHXH-4" target="ssi6dEax1LiMGRlftHXH-18">
          <mxGeometry relative="1" as="geometry" />
        </mxCell>
        <mxCell id="ssi6dEax1LiMGRlftHXH-4" value="doorControl()" style="ellipse;whiteSpace=wrap;html=1;" vertex="1" parent="1">
          <mxGeometry x="640" y="40" width="120" height="80" as="geometry" />
        </mxCell>
        <mxCell id="ssi6dEax1LiMGRlftHXH-5" value="printOLED()" style="rounded=1;whiteSpace=wrap;html=1;" vertex="1" parent="1">
          <mxGeometry x="40" y="520" width="120" height="60" as="geometry" />
        </mxCell>
        <mxCell id="ssi6dEax1LiMGRlftHXH-8" value="controlLights()" style="rounded=1;whiteSpace=wrap;html=1;" vertex="1" parent="1">
          <mxGeometry x="180" y="200" width="120" height="60" as="geometry" />
        </mxCell>
        <mxCell id="ssi6dEax1LiMGRlftHXH-9" value="changeParams()" style="rounded=1;whiteSpace=wrap;html=1;" vertex="1" parent="1">
          <mxGeometry x="180" y="280" width="120" height="60" as="geometry" />
        </mxCell>
        <mxCell id="ssi6dEax1LiMGRlftHXH-10" value="getValues()" style="rounded=1;whiteSpace=wrap;html=1;" vertex="1" parent="1">
          <mxGeometry x="180" y="360" width="120" height="60" as="geometry" />
        </mxCell>
        <mxCell id="ssi6dEax1LiMGRlftHXH-21" style="edgeStyle=orthogonalEdgeStyle;rounded=0;orthogonalLoop=1;jettySize=auto;html=1;exitX=0.5;exitY=1;exitDx=0;exitDy=0;entryX=0.75;entryY=0;entryDx=0;entryDy=0;" edge="1" parent="1" source="ssi6dEax1LiMGRlftHXH-14" target="ssi6dEax1LiMGRlftHXH-15">
          <mxGeometry relative="1" as="geometry" />
        </mxCell>
        <mxCell id="ssi6dEax1LiMGRlftHXH-23" style="edgeStyle=orthogonalEdgeStyle;rounded=0;orthogonalLoop=1;jettySize=auto;html=1;exitX=0.5;exitY=1;exitDx=0;exitDy=0;entryX=0.5;entryY=0;entryDx=0;entryDy=0;" edge="1" parent="1" source="ssi6dEax1LiMGRlftHXH-14" target="ssi6dEax1LiMGRlftHXH-22">
          <mxGeometry relative="1" as="geometry" />
        </mxCell>
        <mxCell id="ssi6dEax1LiMGRlftHXH-14" value="checkRFID()" style="rounded=1;whiteSpace=wrap;html=1;" vertex="1" parent="1">
          <mxGeometry x="520" y="160" width="120" height="60" as="geometry" />
        </mxCell>
        <mxCell id="ssi6dEax1LiMGRlftHXH-26" style="edgeStyle=orthogonalEdgeStyle;rounded=0;orthogonalLoop=1;jettySize=auto;html=1;exitX=1;exitY=0.5;exitDx=0;exitDy=0;entryX=0.5;entryY=0;entryDx=0;entryDy=0;" edge="1" parent="1" source="ssi6dEax1LiMGRlftHXH-15" target="ssi6dEax1LiMGRlftHXH-22">
          <mxGeometry relative="1" as="geometry" />
        </mxCell>
        <mxCell id="ssi6dEax1LiMGRlftHXH-31" style="edgeStyle=orthogonalEdgeStyle;rounded=0;orthogonalLoop=1;jettySize=auto;html=1;exitX=0.5;exitY=1;exitDx=0;exitDy=0;entryX=1;entryY=0.75;entryDx=0;entryDy=0;" edge="1" parent="1" source="ssi6dEax1LiMGRlftHXH-15" target="ssi6dEax1LiMGRlftHXH-5">
          <mxGeometry relative="1" as="geometry" />
        </mxCell>
        <mxCell id="ssi6dEax1LiMGRlftHXH-15" value="checkKeypad()" style="rounded=1;whiteSpace=wrap;html=1;" vertex="1" parent="1">
          <mxGeometry x="398" y="260" width="120" height="60" as="geometry" />
        </mxCell>
        <mxCell id="ssi6dEax1LiMGRlftHXH-18" value="openDoor()" style="rounded=1;whiteSpace=wrap;html=1;" vertex="1" parent="1">
          <mxGeometry x="680" y="160" width="120" height="60" as="geometry" />
        </mxCell>
        <mxCell id="ssi6dEax1LiMGRlftHXH-22" value="mqttPub()" style="rounded=1;whiteSpace=wrap;html=1;" vertex="1" parent="1">
          <mxGeometry x="520" y="440" width="120" height="60" as="geometry" />
        </mxCell>
        <mxCell id="ssi6dEax1LiMGRlftHXH-30" style="edgeStyle=orthogonalEdgeStyle;rounded=0;orthogonalLoop=1;jettySize=auto;html=1;exitX=0.5;exitY=1;exitDx=0;exitDy=0;entryX=1;entryY=0.25;entryDx=0;entryDy=0;" edge="1" parent="1" source="ssi6dEax1LiMGRlftHXH-28" target="ssi6dEax1LiMGRlftHXH-5">
          <mxGeometry relative="1" as="geometry" />
        </mxCell>
        <mxCell id="ssi6dEax1LiMGRlftHXH-28" value="showLog()" style="rounded=1;whiteSpace=wrap;html=1;" vertex="1" parent="1">
          <mxGeometry x="180" y="440" width="120" height="60" as="geometry" />
        </mxCell>
      </root>
    </mxGraphModel>
  </diagram>
</mxfile>
